<svg width="1200" height="120" viewBox="0 0 1200 120" xmlns="http://www.w3.org/2000/svg">
  <defs>
    <linearGradient id="bg" x1="0%" y1="0%" x2="100%" y2="100%">
      <stop offset="0%" stop-color="#111827"/>
      <stop offset="55%" stop-color="#0F172A"/>
      <stop offset="100%" stop-color="#05070D"/>
    </linearGradient>
    <linearGradient id="lineGrad" x1="0%" y1="0%" x2="100%" y2="0%">
      <stop offset="0%" stop-color="#2563EB" stop-opacity="0"/>
      <stop offset="50%" stop-color="#7C3AED" stop-opacity="0.9"/>
      <stop offset="100%" stop-color="#6C63FF" stop-opacity="0"/>
    </linearGradient>
    <pattern id="grid" width="36" height="36" patternUnits="userSpaceOnUse">
      <path d="M 36 0 L 0 0 0 36" fill="none" stroke="#1E293B" stroke-width="0.6" opacity="0.5"/>
    </pattern>
    <filter id="glow" x="-60%" y="-60%" width="220%" height="220%">
      <feGaussianBlur in="SourceGraphic" stdDeviation="4" result="blur"/>
      <feMerge>
        <feMergeNode in="blur"/>
        <feMergeNode in="SourceGraphic"/>
      </feMerge>
    </filter>
  </defs>

  <rect width="1200" height="120" fill="url(#bg)"/>
  <rect width="1200" height="120" fill="url(#grid)"/>

  <g stroke="#6C63FF" stroke-width="2" fill="none" opacity="0.85">
    <path d="M 24 40 L 24 20 L 44 20"/>
    <path d="M 1156 20 L 1176 20 L 1176 40"/>
    <path d="M 24 80 L 24 100 L 44 100"/>
    <path d="M 1156 100 L 1176 100 L 1176 80"/>
  </g>

  <line x1="120" y1="60" x2="480" y2="60" stroke="url(#lineGrad)" stroke-width="1.4"/>
  <line x1="720" y1="60" x2="1080" y2="60" stroke="url(#lineGrad)" stroke-width="1.4"/>

  <text x="600" y="66" text-anchor="middle" font-family="'Courier New', monospace" font-size="14" letter-spacing="3" fill="#8B7CFF" filter="url(#glow)">// BUILT WITH AI · AUTOMATION · CLOUD · DEVOPS · CYBERSEC — 2026</text>
</svg>
